<?xml version="1.0" encoding="UTF-8"?><svg id="Layer_1" xmlns="http://www.w3.org/2000/svg" viewBox="0 0 672.35 526.5"><defs><style>.cls-1{letter-spacing:0em;}.cls-2,.cls-3,.cls-4,.cls-5,.cls-6,.cls-7,.cls-8{stroke:#000;stroke-miterlimit:10;}.cls-2,.cls-4,.cls-5,.cls-7,.cls-8{fill:none;}.cls-2,.cls-6{stroke-width:6px;}.cls-3,.cls-5,.cls-7,.cls-8{stroke-width:4px;}.cls-3,.cls-6{fill:#fff;}.cls-9{letter-spacing:0em;}.cls-10{font-family:MyriadPro-Regular, 'Myriad Pro';font-size:45.97px;}.cls-11{letter-spacing:0em;}.cls-12{letter-spacing:-.02em;}.cls-4{stroke-width:2px;}.cls-13{letter-spacing:0em;}.cls-14{letter-spacing:-.03em;}.cls-7{stroke-dasharray:0 0 13.18 13.18;}.cls-8{stroke-dasharray:0 0 13.45 13.45;}</style></defs><polyline class="cls-6" points="101.45 312.45 101.45 3 392.51 3 392.51 82.92"/><polyline class="cls-6" points="101.45 341.86 101.45 523.5 392.51 523.5 392.51 432.23"/><polyline class="cls-2" points="413.02 319.53 393.02 342.78 413.02 366.03 393.02 389.28 413.02 412.54 393.02 435.8"/><line class="cls-6" x1="18.2" y1="312.96" x2="183.68" y2="312.96"/><line class="cls-6" x1="53.66" y1="341.86" x2="148.22" y2="341.86"/><polyline class="cls-6" points="415.28 319.53 392.51 312.45 392.51 146.92"/><line class="cls-6" x1="392.51" y1="264.37" x2="558" y2="264.37"/><line class="cls-6" x1="392.51" y1="491.58" x2="558" y2="491.58"/><circle class="cls-3" cx="574.42" cy="265.02" r="16.42"/><circle class="cls-3" cx="574.42" cy="490.93" r="16.42"/><text class="cls-10" transform="translate(539.33 378.24)"><tspan class="cls-14" x="0" y="0">V</tspan><tspan class="cls-11" x="24.13" y="0">out</tspan></text><g><line class="cls-5" x1="574.42" y1="281.44" x2="574.42" y2="287.44"/><line class="cls-7" x1="574.42" y1="300.61" x2="574.42" y2="320.38"/><line class="cls-5" x1="574.42" y1="326.96" x2="574.42" y2="332.96"/></g><g><line class="cls-5" x1="574.42" y1="474.51" x2="574.42" y2="468.51"/><line class="cls-8" x1="574.42" y1="455.06" x2="574.42" y2="407.99"/><line class="cls-5" x1="574.42" y1="401.27" x2="574.42" y2="395.27"/></g><text class="cls-10" transform="translate(444.39 138.05)"><tspan x="0" y="0">pho</tspan><tspan class="cls-9" x="76.9" y="0">t</tspan><tspan class="cls-1" x="91.84" y="0">odiode</tspan></text><text class="cls-10" transform="translate(241.12 375.78)"><tspan class="cls-13" x="0" y="0">r</tspan><tspan x="14.57" y="0">esis</tspan><tspan class="cls-9" x="84.77" y="0">t</tspan><tspan x="99.71" y="0">or</tspan></text><text class="cls-10" transform="translate(0 281.41)"><tspan class="cls-12" x="0" y="0">V</tspan><tspan x="24.92" y="0">in</tspan></text><text class="cls-10" transform="translate(122.23 295.84)"><tspan x="0" y="0">+</tspan></text><text class="cls-10" transform="translate(124.68 378.58)"><tspan x="0" y="0">-</tspan></text><polygon class="cls-6" points="393.27 82.89 419.86 146.92 365.64 146.48 393.27 82.89"/><line class="cls-6" x1="343.96" y1="78.61" x2="440.41" y2="78.61"/><g><line class="cls-4" x1="465.96" y1="15.92" x2="437.55" y2="44.32"/><path d="M429.02,52.86c2.53-5.51,4.97-13.03,5.36-18.81l4.29,9.16,9.16,4.29c-5.78,.4-13.31,2.84-18.81,5.36Z"/></g><g><line class="cls-4" x1="481.13" y1="34.13" x2="452.73" y2="62.54"/><path d="M444.19,71.08c2.53-5.51,4.97-13.03,5.36-18.81l4.29,9.16,9.16,4.29c-5.78,.4-13.31,2.84-18.81,5.36Z"/></g><g><line class="cls-4" x1="499.13" y1="56.13" x2="470.73" y2="84.54"/><path d="M462.19,93.08c2.53-5.51,4.97-13.03,5.36-18.81l4.29,9.16,9.16,4.29c-5.78,.4-13.31,2.84-18.81,5.36Z"/></g></svg>