<?xml version="1.0" encoding="UTF-8"?><svg id="Layer_1" xmlns="http://www.w3.org/2000/svg" viewBox="0 0 629.24 526.5"><defs><style>.cls-1{fill:none;}.cls-1,.cls-2,.cls-3,.cls-4{stroke:#000;stroke-miterlimit:10;}.cls-1,.cls-4{stroke-width:6px;}.cls-2{stroke-width:3px;}.cls-3{stroke-width:4px;}.cls-3,.cls-4{fill:#fff;}.cls-5{font-family:MyriadPro-Regular, 'Myriad Pro';font-size:45.97px;}.cls-6{letter-spacing:0em;}.cls-7{letter-spacing:-.02em;}.cls-8{letter-spacing:-.03em;}</style></defs><polyline class="cls-1" points="101.45 312.45 101.45 3 392.51 3 392.51 79.28 409.67 95.28"/><polyline class="cls-1" points="101.45 341.86 101.45 523.5 392.51 523.5 392.51 432.23"/><polyline class="cls-1" points="413.02 327.92 393.02 349.49 413.02 371.06 393.02 392.64 413.02 414.22 393.02 435.8"/><line class="cls-4" x1="18.2" y1="312.96" x2="183.68" y2="312.96"/><line class="cls-4" x1="53.66" y1="341.86" x2="148.22" y2="341.86"/><polyline class="cls-1" points="411.96 330.92 392.51 312.45 392.51 198.28"/><line class="cls-1" x1="392.51" y1="264.37" x2="558" y2="264.37"/><line class="cls-1" x1="392.51" y1="491.58" x2="558" y2="491.58"/><circle class="cls-3" cx="574.42" cy="265.02" r="16.42"/><circle class="cls-3" cx="574.42" cy="490.93" r="16.42"/><text class="cls-5" transform="translate(539.33 378.24)"><tspan class="cls-8" x="0" y="0">V</tspan><tspan class="cls-6" x="24.13" y="0">out</tspan></text><line class="cls-2" x1="574.42" y1="281.44" x2="574.42" y2="332.96"/><line class="cls-2" x1="574.42" y1="474.51" x2="574.42" y2="395.27"/><text class="cls-5" transform="translate(326.39 138.05)"><tspan x="0" y="0">R1</tspan></text><text class="cls-5" transform="translate(330.12 375.78)"><tspan x="0" y="0">R2</tspan></text><text class="cls-5" transform="translate(0 281.41)"><tspan class="cls-7" x="0" y="0">V</tspan><tspan x="24.92" y="0">in</tspan></text><text class="cls-5" transform="translate(122.23 295.84)"><tspan x="0" y="0">+</tspan></text><text class="cls-5" transform="translate(124.68 378.58)"><tspan x="0" y="0">-</tspan></text><polyline class="cls-1" points="411.84 93.26 391.84 114.84 411.84 136.41 391.84 157.99 411.84 179.57 391.84 201.15"/></svg>