<?xml version="1.0" encoding="UTF-8"?><svg id="Layer_1" xmlns="http://www.w3.org/2000/svg" viewBox="0 0 629.24 526.5"><defs><style>.cls-1,.cls-2,.cls-3,.cls-4,.cls-5,.cls-6{stroke:#000;stroke-miterlimit:10;}.cls-1,.cls-3,.cls-5,.cls-6{fill:none;}.cls-1,.cls-4{stroke-width:6px;}.cls-2,.cls-3,.cls-5,.cls-6{stroke-width:4px;}.cls-2,.cls-4{fill:#fff;}.cls-7{font-family:MyriadPro-Regular, 'Myriad Pro';font-size:45.97px;}.cls-8{letter-spacing:0em;}.cls-9{letter-spacing:-.02em;}.cls-10{letter-spacing:-.03em;}.cls-5{stroke-dasharray:0 0 13.18 13.18;}.cls-6{stroke-dasharray:0 0 13.45 13.45;}</style></defs><polyline class="cls-4" points="101.45 312.45 101.45 3 392.51 3 392.51 56.85"/><polyline class="cls-4" points="101.45 341.86 101.45 523.5 392.51 523.5 392.51 432.23"/><polyline class="cls-1" points="413.02 319.53 393.02 342.78 413.02 366.03 393.02 389.28 413.02 412.54 393.02 435.8"/><polyline class="cls-1" points="393.51 56.48 373.51 79.73 393.51 102.99 373.51 126.24 393.51 149.5 373.51 172.75"/><line class="cls-4" x1="18.2" y1="312.96" x2="183.68" y2="312.96"/><line class="cls-4" x1="53.66" y1="341.86" x2="148.22" y2="341.86"/><polyline class="cls-4" points="415.28 319.53 392.51 312.45 392.51 178.32 372.81 169.8"/><line class="cls-4" x1="392.51" y1="264.37" x2="558" y2="264.37"/><line class="cls-4" x1="392.51" y1="491.58" x2="558" y2="491.58"/><circle class="cls-2" cx="574.42" cy="265.02" r="16.42"/><circle class="cls-2" cx="574.42" cy="490.93" r="16.42"/><text class="cls-7" transform="translate(539.33 378.24)"><tspan class="cls-10" x="0" y="0">V</tspan><tspan class="cls-8" x="24.13" y="0">out</tspan></text><g><line class="cls-3" x1="574.42" y1="281.44" x2="574.42" y2="287.44"/><line class="cls-5" x1="574.42" y1="300.61" x2="574.42" y2="320.38"/><line class="cls-3" x1="574.42" y1="326.96" x2="574.42" y2="332.96"/></g><g><line class="cls-3" x1="574.42" y1="474.51" x2="574.42" y2="468.51"/><line class="cls-6" x1="574.42" y1="455.06" x2="574.42" y2="407.99"/><line class="cls-3" x1="574.42" y1="401.27" x2="574.42" y2="395.27"/></g><text class="cls-7" transform="translate(303.39 129.05)"><tspan x="0" y="0">R1</tspan></text><text class="cls-7" transform="translate(307.12 366.78)"><tspan x="0" y="0">R2</tspan></text><text class="cls-7" transform="translate(0 281.41)"><tspan class="cls-9" x="0" y="0">V</tspan><tspan x="24.92" y="0">in</tspan></text><text class="cls-7" transform="translate(122.23 295.84)"><tspan x="0" y="0">+</tspan></text><text class="cls-7" transform="translate(124.68 378.58)"><tspan x="0" y="0">-</tspan></text></svg>